<svg xmlns="http://www.w3.org/2000/svg" viewBox="0 0 654.65 245.27"><defs><style>.cls-1{fill:none;stroke:#fff;stroke-miterlimit:10;stroke-width:6px;}</style></defs><title>cab</title><g id="Layer_2" data-name="Layer 2"><g id="Layer_2-2" data-name="Layer 2"><path class="cls-1" d="M612.84,200c-.32-6-.13-12.15-1.2-18-5.28-28.95-29.4-49.12-59-49.71-27.52-.56-52.32,18.72-58.83,46.43-1.74,7.41-2.08,15.24-2.26,22.9-.11,4.7-1.64,5.62-6.06,5.62Q333.26,207,181,207.08h-5.78c0-6.83,0-13.28,0-19.73a55.59,55.59,0,0,0-7.47-28.09c-13.09-22.89-40.54-33.46-67.86-26.2-25.72,6.83-42.74,26.69-45.07,52.76-.59,6.56-.85,13.15-1.29,20.3-3.31,0-6.15.09-9,0-12.2-.46-24.4-1-36.59-1.49-3.47-.14-4.92-1.89-5-5.44-.18-18.76.65-37.41,5.36-55.7,3.73-14.5,10.3-27.1,23.77-34.91A198.71,198.71,0,0,1,51.26,98.3c21.89-9.67,45-15.44,68.18-21,9.5-2.3,19.35-3.89,28.28-7.61C185.13,54,222.21,37.6,259.5,21.69,286.22,10.29,313.79,3.08,343.22,3c40.34-.1,80.59,1,120.68,5.58,8.93,1,18.5,1.76,26.4,5.52C539.43,37.5,588.19,61.7,637,85.76a6.72,6.72,0,0,1,3.1,4.24c2.73,14.68,4.74,29.5,7.89,44.09C652.94,157,652.13,180,649.87,203c-.14,1.44-1.86,3.88-2.9,3.91-11.13.28-22.28.18-34.12.18C612.85,204.42,613,202.2,612.84,200ZM328.59,26.11c-32,3-62.45,12.25-91.54,25.45C217.46,60.45,198.6,71,179.57,81.08a43.87,43.87,0,0,0-10.23,8.11c-3,3-2.09,5.88,2.11,6.33a129.82,129.82,0,0,0,18.47.33c35.59-1.32,71.17-2.77,106.75-4.16,15.68-.62,31.36-1.26,47-1.77,2.58-.08,3.85-.81,4-3.55,1.12-20,2.31-40.06,3.56-61.3C343.23,25.41,335.88,25.43,328.59,26.11Zm39.66,62.74L484.36,81c-9-16.86-17.29-33.48-32.39-44.77-5-3.75-12.13-5.77-18.5-6.39-20.23-2-40.57-2.91-60.87-4.24a8.92,8.92,0,0,0-1.82.39Z"/><path class="cls-1" d="M114.9,142.73A49.77,49.77,0,1,1,65.42,192.8,50,50,0,0,1,114.9,142.73Zm.41,70.54a20.92,20.92,0,1,0-21.11-20.7A20.66,20.66,0,0,0,115.31,213.27Z"/><path class="cls-1" d="M552.19,242.27c-27.16,0-49.48-22.25-49.74-49.56s22.45-50,49.77-50a49.77,49.77,0,1,1,0,99.54Zm21-50.05a20.67,20.67,0,0,0-21-20.79,20.92,20.92,0,1,0,.29,41.84A20.62,20.62,0,0,0,573.2,192.22Z"/></g></g></svg>